<svg width="22" height="22" viewBox="0 0 22 22" fill="none" xmlns="http://www.w3.org/2000/svg">
    <path fill-rule="evenodd" clip-rule="evenodd" d="M21.5375 20.8849C21.2823 21.1401 20.8685 21.1401 20.6133 20.8849L1.20589 1.47732C0.950686 1.22212 0.950686 0.808352 1.20589 0.55315V0.55315C1.46109 0.297947 1.87485 0.297947 2.13005 0.553149L21.5375 19.9607C21.7927 20.2159 21.7927 20.6297 21.5375 20.8849V20.8849Z" fill="white"/>
    <path fill-rule="evenodd" clip-rule="evenodd" d="M1.2047 20.8849C1.4599 21.1401 1.87366 21.1401 2.12886 20.8849L21.5363 1.47732C21.7915 1.22212 21.7915 0.808352 21.5363 0.55315V0.55315C21.2811 0.297947 20.8673 0.297947 20.6121 0.553149L1.2047 19.9607C0.949494 20.2159 0.949494 20.6297 1.2047 20.8849V20.8849Z" fill="white"/>
</svg>
