<svg width="64" height="64" viewBox="0 0 64 64" fill="none" xmlns="http://www.w3.org/2000/svg">
<path d="M36.93 35.3185H35.846L35.4617 34.948C36.8065 33.3836 37.6161 31.3528 37.6161 29.1435C37.6161 24.2173 33.623 20.2241 28.6967 20.2241C23.7705 20.2241 19.7773 24.2173 19.7773 29.1435C19.7773 34.0697 23.7705 38.0629 28.6967 38.0629C30.906 38.0629 32.9369 37.2533 34.5012 35.9085L34.8717 36.2927V37.3768L41.7327 44.2241L43.7773 42.1795L36.93 35.3185ZM28.6967 35.3185C25.2799 35.3185 22.5218 32.5603 22.5218 29.1435C22.5218 25.7267 25.2799 22.9685 28.6967 22.9685C32.1135 22.9685 34.8717 25.7267 34.8717 29.1435C34.8717 32.5603 32.1135 35.3185 28.6967 35.3185Z" fill="white"/>
<circle cx="31.7754" cy="32.2241" r="30.3496" stroke="white" stroke-width="2"/>
</svg>
